<svg class="img-fluid" id="outputsvg" xmlns="http://www.w3.org/2000/svg" style="transform: matrix(1.11388, 0, 0, 1.11388, 1.70332, 43.4625); transform-origin: 50% 50%; cursor: move; max-height: none; transition: transform 200ms ease-in-out 0s;" width="300" height="118" viewBox="0 0 3000 1180"><g id="l5fKirUr31u06vOGdqMvKQF" fill="rgb(59,58,57)" style="transform: none;"><g><path id="pLUA23L2Z" d="M20 590 l0 -570 1233 0 c1197 0 1236 1 1311 20 43 11 101 32 129 47 114 62 219 191 263 323 29 86 27 282 -4 373 -45 130 -148 250 -269 314 -121 65 -62 63 -1425 63 l-1238 0 0 -570z m2551 407 c209 -88 326 -328 258 -529 -43 -129 -121 -216 -248 -277 -76 -36 -76 -36 -561 -39 -546 -4 -561 -2 -668 67 -239 156 -283 452 -98 658 54 59 128 110 200 135 47 16 94 18 551 15 500 -2 500 -2 566 -30z m-2241 -352 c0 -265 0 -265 25 -265 14 0 27 6 30 13 2 6 46 126 97 265 121 329 112 327 221 42 43 -113 88 -231 99 -262 17 -49 24 -58 44 -58 24 0 24 0 24 265 0 265 0 265 40 265 40 0 40 0 38 -317 l-3 -318 -72 -3 c-71 -3 -71 -3 -91 50 -11 29 -50 137 -88 241 -60 164 -71 187 -90 187 -16 0 -25 -11 -37 -42 -9 -24 -46 -124 -82 -223 -36 -99 -69 -187 -74 -195 -6 -11 -29 -16 -80 -18 l-71 -3 0 321 c0 320 0 320 35 320 35 0 35 0 35 -265z"></path></g></g><g id="l4Zn0L0VaJkh32NwCnBVg1a" fill="rgb(131,36,52)" style="transform: none;"><g><path id="p1HBKmFxVH" d="M1522 960 c-107 -23 -214 -115 -252 -218 -19 -49 -21 -73 -18 -172 3 -105 6 -120 33 -168 62 -113 165 -173 309 -180 236 -12 385 94 416 296 29 187 -49 347 -205 418 -60 28 -207 40 -283 24z m170 -155 c199 -68 193 -369 -9 -428 -212 -63 -356 233 -186 383 68 59 118 71 195 45z"></path><path id="p12UPZU5mg" d="M2112 593 l3 -358 160 0 c185 1 263 14 338 59 65 39 123 115 138 182 18 81 7 230 -20 284 -33 64 -112 135 -179 161 -50 20 -79 23 -250 27 l-192 4 2 -359z m337 192 c88 -31 141 -102 141 -188 0 -131 -82 -205 -237 -215 l-83 -5 0 218 0 218 69 -7 c37 -3 87 -13 110 -21z"></path></g></g><g id="l5XQynuUxCeCkxmIgSCNSXo" fill="rgb(255,255,255)" style="transform: none;"><g><path id="pxag3Okjw" d="M0 590 l0 -590 1500 0 1500 0 0 590 0 590 -1500 0 -1500 0 0 -590z m2539 535 c176 -42 332 -186 392 -362 31 -89 33 -250 5 -333 -44 -132 -149 -261 -263 -323 -28 -15 -86 -36 -129 -47 -75 -19 -114 -20 -1291 -20 l-1213 0 0 550 0 550 1218 0 c1050 0 1226 -2 1281 -15z"></path><path id="pt3FLfd8w" d="M1434 1032 c-222 -77 -354 -305 -309 -528 27 -131 97 -233 207 -305 108 -69 120 -71 688 -67 505 3 505 3 581 39 173 83 269 232 269 419 0 187 -110 355 -279 427 -66 28 -66 28 -586 30 -476 3 -524 1 -571 -15z m353 -117 c147 -67 228 -222 202 -386 -30 -186 -186 -300 -393 -287 -127 8 -233 74 -291 180 -25 46 -30 66 -33 148 -3 79 0 105 18 152 38 103 145 195 252 218 68 14 186 2 245 -25z m745 -14 c68 -26 146 -97 179 -161 27 -55 37 -175 20 -247 -25 -105 -130 -197 -253 -224 -35 -7 -125 -13 -203 -14 l-140 0 -3 338 -2 339 172 -4 c149 -4 181 -7 230 -27z"></path><path id="p1AQUUybr0" d="M1554 829 c-51 -14 -120 -83 -138 -136 -71 -207 85 -395 282 -338 68 20 131 79 150 142 18 60 15 161 -7 208 -48 105 -170 158 -287 124z"></path><path id="p0AimnZBG" d="M2250 595 l0 -238 103 5 c77 4 112 10 142 25 81 42 115 104 115 210 0 149 -81 217 -272 230 l-88 6 0 -238z"></path><path id="pvYhUoWIw" d="M239 923 c0 -7 0 -644 1 -665 0 -5 40 -8 89 -8 91 0 103 4 114 45 7 25 156 427 160 431 2 2 34 -81 71 -184 38 -103 77 -211 88 -240 20 -53 20 -53 111 -50 l92 3 3 338 2 337 -60 0 c-60 0 -60 0 -62 -267 -3 -268 -3 -268 -25 -208 -12 33 -57 152 -100 265 -79 205 -79 205 -123 208 -45 3 -45 3 -138 -250 -51 -139 -96 -260 -100 -268 -4 -8 -8 105 -10 253 -2 267 -2 267 -57 267 -30 0 -55 -3 -56 -7z"></path></g></g></svg>
